<svg width="65" height="65" viewBox="0 0 65 65" fill="none" xmlns="http://www.w3.org/2000/svg">
<path d="M47.2263 18.3192L26.0834 39.4621L14.5655 27.9763L10.0417 32.5L26.0834 48.5417L51.7501 22.875L47.2263 18.3192ZM32.5001 0.416687C14.7901 0.416687 0.416748 14.79 0.416748 32.5C0.416748 50.21 14.7901 64.5834 32.5001 64.5834C50.2101 64.5834 64.5834 50.21 64.5834 32.5C64.5834 14.79 50.2101 0.416687 32.5001 0.416687ZM32.5001 58.1667C18.3192 58.1667 6.83342 46.6809 6.83342 32.5C6.83342 18.3192 18.3192 6.83335 32.5001 6.83335C46.6809 6.83335 58.1668 18.3192 58.1668 32.5C58.1668 46.6809 46.6809 58.1667 32.5001 58.1667Z" fill="white"/>
</svg>
