<svg width="18" height="18" viewBox="0 0 18 18" fill="none" xmlns="http://www.w3.org/2000/svg">
<path d="M10.7397 14.2457C10.7397 15.2017 9.97502 15.9855 9 15.9855C8.02497 15.9855 7.26025 15.2017 7.26025 14.2457C7.26025 13.2898 8.02497 12.506 9 12.506C9.97502 12.506 10.7397 13.2899 10.7397 14.2457ZM9.79727 10.7663H8.18455C7.94548 10.7663 7.74868 10.5783 7.73778 10.3395L7.39638 2.87943C7.38471 2.62465 7.58812 2.41174 7.84314 2.41174H10.1558C10.4112 2.41174 10.6148 2.62532 10.6025 2.88045L10.244 10.3405C10.2326 10.5789 10.0359 10.7663 9.79727 10.7663Z" fill="white"/>
</svg>
