<svg width="16" height="16" viewBox="0 0 16 16" fill="none" xmlns="http://www.w3.org/2000/svg">
<path d="M7.9925 0.5C3.8525 0.5 0.5 3.86 0.5 8C0.5 12.14 3.8525 15.5 7.9925 15.5C12.14 15.5 15.5 12.14 15.5 8C15.5 3.86 12.14 0.5 7.9925 0.5ZM8 14C4.685 14 2 11.315 2 8C2 4.685 4.685 2 8 2C11.315 2 14 4.685 14 8C14 11.315 11.315 14 8 14ZM10.625 7.25C11.2475 7.25 11.75 6.7475 11.75 6.125C11.75 5.5025 11.2475 5 10.625 5C10.0025 5 9.5 5.5025 9.5 6.125C9.5 6.7475 10.0025 7.25 10.625 7.25ZM5.375 7.25C5.9975 7.25 6.5 6.7475 6.5 6.125C6.5 5.5025 5.9975 5 5.375 5C4.7525 5 4.25 5.5025 4.25 6.125C4.25 6.7475 4.7525 7.25 5.375 7.25ZM8 12.125C9.7475 12.125 11.2325 11.03 11.8325 9.5H4.1675C4.7675 11.03 6.2525 12.125 8 12.125Z" fill="#FED1F3"/>
</svg>
