<svg width="18" height="15" viewBox="0 0 18 15" fill="none" xmlns="http://www.w3.org/2000/svg">
<path d="M17.0781 13.2422H2.29688V0.445312C2.29688 0.355078 2.21953 0.28125 2.125 0.28125H0.921875C0.827344 0.28125 0.75 0.355078 0.75 0.445312V14.5547C0.75 14.6449 0.827344 14.7188 0.921875 14.7188H17.0781C17.1727 14.7188 17.25 14.6449 17.25 14.5547V13.4062C17.25 13.316 17.1727 13.2422 17.0781 13.2422ZM4.1875 11.6016H5.39062C5.48516 11.6016 5.5625 11.5277 5.5625 11.4375V8.48438C5.5625 8.39414 5.48516 8.32031 5.39062 8.32031H4.1875C4.09297 8.32031 4.01562 8.39414 4.01562 8.48438V11.4375C4.01562 11.5277 4.09297 11.6016 4.1875 11.6016ZM7.45312 11.6016H8.65625C8.75078 11.6016 8.82812 11.5277 8.82812 11.4375V4.875C8.82812 4.78477 8.75078 4.71094 8.65625 4.71094H7.45312C7.35859 4.71094 7.28125 4.78477 7.28125 4.875V11.4375C7.28125 11.5277 7.35859 11.6016 7.45312 11.6016ZM10.7188 11.6016H11.9219C12.0164 11.6016 12.0938 11.5277 12.0938 11.4375V6.47461C12.0938 6.38438 12.0164 6.31055 11.9219 6.31055H10.7188C10.6242 6.31055 10.5469 6.38438 10.5469 6.47461V11.4375C10.5469 11.5277 10.6242 11.6016 10.7188 11.6016ZM13.9844 11.6016H15.1875C15.282 11.6016 15.3594 11.5277 15.3594 11.4375V3.23438C15.3594 3.14414 15.282 3.07031 15.1875 3.07031H13.9844C13.8898 3.07031 13.8125 3.14414 13.8125 3.23438V11.4375C13.8125 11.5277 13.8898 11.6016 13.9844 11.6016Z" fill="white"/>
</svg>
