<svg width="38" height="38" viewBox="0 0 38 38" fill="none" xmlns="http://www.w3.org/2000/svg">
<path d="M14.3754 11.3436C14.4818 11.1307 14.6497 10.9547 14.8573 10.8383C15.065 10.722 15.3028 10.6708 15.5399 10.6913C15.777 10.7117 16.0025 10.803 16.1871 10.9532C16.3717 11.1034 16.507 11.3056 16.5753 11.5336L19.2768 20.5408L21.5034 16.0936C21.602 15.8964 21.7536 15.7305 21.9412 15.6146C22.1288 15.4987 22.3449 15.4373 22.5654 15.4373C22.786 15.4373 23.0021 15.4987 23.1897 15.6146C23.3773 15.7305 23.5289 15.8964 23.6275 16.0936L25.6715 20.1875H32.8529C33.9221 17.9832 34.4646 15.5606 34.4375 13.1107C34.3907 8.50102 30.6924 4.75 26.1933 4.75C22.6241 4.75 20.2558 6.94242 19 8.53516C17.7472 6.9402 15.3759 4.75 11.8067 4.75C7.30756 4.75 3.60924 8.50102 3.56248 13.1107C3.54329 14.7026 3.76678 16.288 4.22525 17.8125H11.141L14.3754 11.3436Z" fill="white"/>
<path d="M23.8754 21.9064L22.5625 19.2805L20.0621 24.2814C19.9634 24.4786 19.8118 24.6444 19.6242 24.7603C19.4366 24.8762 19.2205 24.9375 19 24.9375C18.9668 24.9375 18.9327 24.936 18.8976 24.933C18.6599 24.9133 18.4337 24.8225 18.2483 24.6724C18.063 24.5223 17.9272 24.3198 17.8585 24.0914L15.157 15.0842L12.9304 19.5314C12.8322 19.7276 12.6817 19.8927 12.4954 20.0085C12.3091 20.1243 12.0944 20.1863 11.875 20.1875H5.14707C5.83978 21.6367 6.76182 23.0632 7.9132 24.467C9.30629 26.1651 11.832 28.88 17.6648 32.8396C18.0582 33.1092 18.5239 33.2534 19.0007 33.2534C19.4776 33.2534 19.9433 33.1092 20.3367 32.8396C26.1695 28.88 28.6952 26.1651 30.0883 24.467C30.59 23.8562 31.0607 23.2206 31.4984 22.5625H24.9375C24.717 22.5625 24.5009 22.5012 24.3133 22.3853C24.1257 22.2694 23.9741 22.1036 23.8754 21.9064ZM34.4375 20.1875H32.8529C32.4581 21.0102 32.0055 21.8038 31.4984 22.5625H34.4375C34.7524 22.5625 35.0545 22.4374 35.2772 22.2147C35.4999 21.992 35.625 21.6899 35.625 21.375C35.625 21.0601 35.4999 20.758 35.2772 20.5353C35.0545 20.3126 34.7524 20.1875 34.4375 20.1875ZM3.5625 17.8125C3.24756 17.8125 2.94551 17.9376 2.72281 18.1603C2.50011 18.383 2.375 18.6851 2.375 19C2.375 19.3149 2.50011 19.617 2.72281 19.8397C2.94551 20.0624 3.24756 20.1875 3.5625 20.1875H5.14707C4.77984 19.4204 4.47167 18.6265 4.22527 17.8125H3.5625Z" fill="white"/>
</svg>
