<svg width="15" height="15" viewBox="0 0 15 15" fill="none" xmlns="http://www.w3.org/2000/svg">
<path d="M9.979 6.79163C10.5658 6.79163 11.0415 6.31593 11.0415 5.72913C11.0415 5.14232 10.5658 4.66663 9.979 4.66663C9.3922 4.66663 8.9165 5.14232 8.9165 5.72913C8.9165 6.31593 9.3922 6.79163 9.979 6.79163Z" fill="#FED1F3"/>
<path d="M5.021 6.79163C5.6078 6.79163 6.0835 6.31593 6.0835 5.72913C6.0835 5.14232 5.6078 4.66663 5.021 4.66663C4.43419 4.66663 3.9585 5.14232 3.9585 5.72913C3.9585 6.31593 4.43419 6.79163 5.021 6.79163Z" fill="#FED1F3"/>
<path d="M7.49275 0.416626C3.58275 0.416626 0.416504 3.58996 0.416504 7.49996C0.416504 11.41 3.58275 14.5833 7.49275 14.5833C11.4098 14.5833 14.5832 11.41 14.5832 7.49996C14.5832 3.58996 11.4098 0.416626 7.49275 0.416626ZM7.49984 13.1666C4.369 13.1666 1.83317 10.6308 1.83317 7.49996C1.83317 4.36913 4.369 1.83329 7.49984 1.83329C10.6307 1.83329 13.1665 4.36913 13.1665 7.49996C13.1665 10.6308 10.6307 13.1666 7.49984 13.1666ZM7.49984 10.6875C8.01692 10.6875 8.48442 10.822 8.89525 11.0629C8.98025 10.9637 9.50442 10.3687 9.61067 10.2554C9.00859 9.85871 8.28609 9.62496 7.49984 9.62496C6.71359 9.62496 5.99109 9.85871 5.38192 10.2483C6.069 11.0204 5.389 10.2625 6.09734 11.0558C6.51525 10.822 6.98275 10.6875 7.49984 10.6875Z" fill="#FED1F3"/>
</svg>
