<svg width="21" height="21" viewBox="0 0 21 21" fill="none" xmlns="http://www.w3.org/2000/svg">
<path d="M11.1395 0.302084C10.9566 0.15984 10.7316 0.0826111 10.4999 0.0826111C10.2683 0.0826111 10.0432 0.15984 9.86034 0.302084L1.2895 6.96875C0.913628 7.26114 0.609548 7.63557 0.400489 8.06344C0.19143 8.4913 0.0829223 8.96129 0.0832527 9.4375V18.8333C0.0832527 19.3859 0.302746 19.9158 0.693447 20.3065C1.08415 20.6972 1.61405 20.9167 2.16659 20.9167H6.33325C6.88579 20.9167 7.41569 20.6972 7.80639 20.3065C8.19709 19.9158 8.41659 19.3859 8.41659 18.8333V12.5833H12.5833V18.8333C12.5833 19.3859 12.8027 19.9158 13.1934 20.3065C13.5841 20.6972 14.1141 20.9167 14.6666 20.9167H18.8333C19.3858 20.9167 19.9157 20.6972 20.3064 20.3065C20.6971 19.9158 20.9166 19.3859 20.9166 18.8333V9.4375C20.9167 8.96112 20.8078 8.49102 20.5984 8.06314C20.389 7.63527 20.0845 7.26093 19.7083 6.96875L11.1395 0.302084Z" fill="white"/>
</svg>
