<svg width="21" height="21" viewBox="0 0 21 21" fill="none" xmlns="http://www.w3.org/2000/svg">
<g clip-path="url(#clip0_443_2353)">
<path d="M10.5 4.125V0.625H1.75V16.375H19.25V4.125H10.5ZM5.25 14.625H3.5V12.875H5.25V14.625ZM5.25 11.125H3.5V9.375H5.25V11.125ZM5.25 7.625H3.5V5.875H5.25V7.625ZM5.25 4.125H3.5V2.375H5.25V4.125ZM8.75 14.625H7V12.875H8.75V14.625ZM8.75 11.125H7V9.375H8.75V11.125ZM8.75 7.625H7V5.875H8.75V7.625ZM8.75 4.125H7V2.375H8.75V4.125ZM17.5 14.625H10.5V12.875H12.25V11.125H10.5V9.375H12.25V7.625H10.5V5.875H17.5V14.625ZM15.75 7.625H14V9.375H15.75V7.625ZM15.75 11.125H14V12.875H15.75V11.125Z" fill="black"/>
</g>
<defs>
<clipPath id="clip0_443_2353">
<rect width="21" height="21" fill="white"/>
</clipPath>
</defs>
</svg>
