<svg width="24" height="24" viewBox="0 0 24 24" fill="none" xmlns="http://www.w3.org/2000/svg">
<path d="M17 6C18.1046 6 19 5.10457 19 4C19 2.89543 18.1046 2 17 2C15.8954 2 15 2.89543 15 4C15 5.10457 15.8954 6 17 6Z" fill="black"/>
<path d="M15.777 10.969C16.0066 11.3111 16.3358 11.5743 16.7201 11.7227C17.1044 11.8712 17.5251 11.8979 17.925 11.799L21.241 10.97L20.758 9.03003L17.442 9.85903L16.063 7.79203C15.7684 7.3506 15.3111 7.0436 14.791 6.93803L10.945 6.16803C10.5147 6.08168 10.068 6.13939 9.67383 6.33224C9.27964 6.52508 8.9599 6.84235 8.764 7.23503L7.106 10.551L8.895 11.446L10.553 8.12903L12.52 8.52303L7.434 17H3V19H7.434C8.132 19 8.789 18.628 9.149 18.029L11.067 14.833L16.236 15.867L18.052 21.316L19.948 20.683L18.133 15.235C18.021 14.9006 17.8228 14.6015 17.5584 14.368C17.294 14.1345 16.9728 13.9748 16.627 13.905L13.588 13.298L15.36 10.344L15.777 10.969Z" fill="black"/>
</svg>
