<svg width="24" height="24" viewBox="0 0 24 24" fill="none" xmlns="http://www.w3.org/2000/svg">
<path d="M0 11.3333C0 12.4379 0.895431 13.3333 2 13.3333H8.66667C9.77123 13.3333 10.6667 12.4379 10.6667 11.3333V2C10.6667 0.895429 9.77124 0 8.66667 0H2C0.895432 0 0 0.895431 0 2V11.3333ZM0 22C0 23.1046 0.895431 24 2 24H8.66667C9.77123 24 10.6667 23.1046 10.6667 22V18C10.6667 16.8954 9.77124 16 8.66667 16H2C0.895432 16 0 16.8954 0 18V22ZM13.3333 22C13.3333 23.1046 14.2288 24 15.3333 24H22C23.1046 24 24 23.1046 24 22V12.6667C24 11.5621 23.1046 10.6667 22 10.6667H15.3333C14.2288 10.6667 13.3333 11.5621 13.3333 12.6667V22ZM15.3333 0C14.2288 0 13.3333 0.895431 13.3333 2V6C13.3333 7.10457 14.2288 8 15.3333 8H22C23.1046 8 24 7.10457 24 6V2C24 0.895431 23.1046 0 22 0H15.3333Z" fill="white"/>
</svg>
