<svg width="29" height="32" viewBox="0 0 29 32" fill="none" xmlns="http://www.w3.org/2000/svg">
<path d="M29 8.75C29 10.938 28.1308 13.0365 26.5836 14.5836C25.0365 16.1308 22.938 17 20.75 17C18.562 17 16.4635 16.1308 14.9164 14.5836C13.3692 13.0365 12.5 10.938 12.5 8.75C12.5 6.56196 13.3692 4.46354 14.9164 2.91637C16.4635 1.36919 18.562 0.5 20.75 0.5C22.938 0.5 25.0365 1.36919 26.5836 2.91637C28.1308 4.46354 29 6.56196 29 8.75ZM18.5 11.9225C18.5 12.0552 18.5352 12.1855 18.6019 12.3002C18.6687 12.4149 18.7648 12.5097 18.8802 12.5752C18.9957 12.6406 19.1264 12.6742 19.2591 12.6726C19.3918 12.671 19.5217 12.6342 19.6355 12.566L24.9275 9.3905C25.0387 9.32391 25.1308 9.22963 25.1947 9.11685C25.2587 9.00407 25.2923 8.87664 25.2923 8.747C25.2923 8.61736 25.2587 8.48993 25.1947 8.37715C25.1308 8.26437 25.0387 8.17009 24.9275 8.1035L19.6355 4.928C19.5216 4.85973 19.3915 4.82294 19.2587 4.82139C19.1259 4.81985 18.9951 4.8536 18.8796 4.91921C18.7641 4.98481 18.6681 5.07991 18.6014 5.19478C18.5347 5.30965 18.4997 5.44017 18.5 5.573V11.9225ZM5.375 5H11.747C11.4459 5.72167 11.2333 6.47718 11.114 7.25H5.375C4.67881 7.25 4.01113 7.52656 3.51884 8.01884C3.02656 8.51113 2.75 9.17881 2.75 9.875V11H11.261C11.4485 11.792 11.732 12.545 12.098 13.25H2.75V20H9.587C10.16 20 10.625 20.465 10.625 21.038V21.125C10.625 22.0201 10.9806 22.8785 11.6135 23.5115C12.2465 24.1444 13.1049 24.5 14 24.5C14.8951 24.5 15.7535 24.1444 16.3865 23.5115C17.0194 22.8785 17.375 22.0201 17.375 21.125V21.038C17.375 20.465 17.84 20 18.413 20H25.25V17.402C26.073 16.9725 26.8306 16.4281 27.5 15.785V27.125C27.5 27.7652 27.3739 28.3991 27.1289 28.9906C26.8839 29.582 26.5248 30.1195 26.0721 30.5721C25.6195 31.0248 25.082 31.3839 24.4906 31.6289C23.8991 31.8739 23.2652 32 22.625 32H5.375C4.73481 32 4.10088 31.8739 3.50942 31.6289C2.91796 31.3839 2.38054 31.0248 1.92785 30.5721C1.47517 30.1195 1.11608 29.582 0.871087 28.9906C0.626096 28.3991 0.5 27.7652 0.5 27.125V9.875C0.5 8.58207 1.01361 7.34209 1.92785 6.42785C2.84209 5.51361 4.08207 5 5.375 5Z" fill="white"/>
</svg>
