<svg width="25" height="17" viewBox="0 0 25 17" fill="none" xmlns="http://www.w3.org/2000/svg">
<path d="M10.5791 5.65137C10.5791 6.79395 10.3887 7.87793 10.0078 8.90332C9.62695 9.92871 9.09961 10.8809 8.42578 11.7598C7.78125 12.6387 7.01953 13.4443 6.14062 14.1768C5.29102 14.9092 4.39746 15.5537 3.45996 16.1104L1.87793 14.748C2.40527 14.25 2.90332 13.6201 3.37207 12.8584C3.84082 12.0967 4.14844 11.3496 4.29492 10.6172C3.18164 10.2949 2.25879 9.69434 1.52637 8.81543C0.793945 7.90723 0.427734 6.85254 0.427734 5.65137C0.427734 4.94824 0.55957 4.28906 0.823242 3.67383C1.08691 3.05859 1.43848 2.53125 1.87793 2.0918C2.34668 1.62305 2.88867 1.25684 3.50391 0.993164C4.11914 0.700195 4.77832 0.553711 5.48145 0.553711C6.18457 0.553711 6.84375 0.700195 7.45898 0.993164C8.07422 1.25684 8.60156 1.62305 9.04102 2.0918C9.50977 2.53125 9.87598 3.05859 10.1396 3.67383C10.4326 4.28906 10.5791 4.94824 10.5791 5.65137ZM24.0703 5.65137C24.0703 6.79395 23.8799 7.87793 23.499 8.90332C23.1182 9.92871 22.6055 10.8809 21.9609 11.7598C21.3164 12.6387 20.5547 13.4443 19.6758 14.1768C18.8262 14.9092 17.9326 15.5537 16.9951 16.1104L15.3691 14.748C15.8965 14.25 16.3945 13.6201 16.8633 12.8584C17.332 12.0967 17.6396 11.3496 17.7861 10.6172C16.6729 10.2949 15.75 9.69434 15.0176 8.81543C14.2852 7.90723 13.9189 6.85254 13.9189 5.65137C13.9189 4.94824 14.0508 4.28906 14.3145 3.67383C14.5781 3.05859 14.9297 2.53125 15.3691 2.0918C15.8379 1.62305 16.3799 1.25684 16.9951 0.993164C17.6104 0.700195 18.2695 0.553711 18.9727 0.553711C19.6758 0.553711 20.335 0.700195 20.9502 0.993164C21.5654 1.25684 22.0928 1.62305 22.5322 2.0918C23.001 2.53125 23.3672 3.05859 23.6309 3.67383C23.9238 4.28906 24.0703 4.94824 24.0703 5.65137Z" fill="#FED1F3"/>
</svg>
