<svg width="21" height="21" viewBox="0 0 21 21" fill="none" xmlns="http://www.w3.org/2000/svg">
<path d="M7.875 11.375C9.808 11.375 11.375 9.808 11.375 7.875C11.375 5.942 9.808 4.375 7.875 4.375C5.942 4.375 4.375 5.942 4.375 7.875C4.375 9.808 5.942 11.375 7.875 11.375Z" fill="black"/>
<path d="M7.875 13.125C5.53875 13.125 0.875 14.2975 0.875 16.625V18.375H14.875V16.625C14.875 14.2975 10.2113 13.125 7.875 13.125ZM14.665 4.69L13.195 6.16875C13.93 7.20125 13.93 8.54 13.195 9.5725L14.665 11.0513C16.4325 9.28375 16.4325 6.615 14.665 4.69ZM17.5612 1.75L16.135 3.17625C18.5588 5.81875 18.5588 9.79125 16.135 12.5737L17.5612 14C20.9737 10.5962 20.9825 5.29375 17.5612 1.75Z" fill="black"/>
</svg>
