<svg width="16" height="16" viewBox="0 0 16 16" fill="none" xmlns="http://www.w3.org/2000/svg">
<path d="M10.3333 7.33334C10.8855 7.33334 11.3333 6.88563 11.3333 6.33334C11.3333 5.78106 10.8855 5.33334 10.3333 5.33334C9.78097 5.33334 9.33325 5.78106 9.33325 6.33334C9.33325 6.88563 9.78097 7.33334 10.3333 7.33334Z" fill="#FED1F3"/>
<path d="M5.66675 7.33334C6.21903 7.33334 6.66675 6.88563 6.66675 6.33334C6.66675 5.78106 6.21903 5.33334 5.66675 5.33334C5.11446 5.33334 4.66675 5.78106 4.66675 6.33334C4.66675 6.88563 5.11446 7.33334 5.66675 7.33334Z" fill="#FED1F3"/>
<path d="M7.99325 1.33334C4.31325 1.33334 1.33325 4.32001 1.33325 8.00001C1.33325 11.68 4.31325 14.6667 7.99325 14.6667C11.6799 14.6667 14.6666 11.68 14.6666 8.00001C14.6666 4.32001 11.6799 1.33334 7.99325 1.33334ZM7.99992 13.3333C5.05325 13.3333 2.66659 10.9467 2.66659 8.00001C2.66659 5.05334 5.05325 2.66668 7.99992 2.66668C10.9466 2.66668 13.3333 5.05334 13.3333 8.00001C13.3333 10.9467 10.9466 13.3333 7.99992 13.3333ZM7.99992 9.33334C6.44659 9.33334 5.11992 10.3 4.58659 11.6667H5.69992C6.15992 10.8733 7.01325 10.3333 7.99992 10.3333C8.98659 10.3333 9.83325 10.8733 10.2999 11.6667H11.4133C10.8799 10.3 9.55325 9.33334 7.99992 9.33334Z" fill="#FED1F3"/>
</svg>
