<svg width="16" height="16" viewBox="0 0 16 16" fill="none" xmlns="http://www.w3.org/2000/svg">
<path d="M7.99967 1.33334C4.32367 1.33334 1.33301 4.32401 1.33301 8.00001C1.33301 11.676 4.32367 14.6667 7.99967 14.6667C11.6757 14.6667 14.6663 11.676 14.6663 8.00001C14.6663 4.32401 11.6757 1.33334 7.99967 1.33334ZM7.99967 13.3333C5.05901 13.3333 2.66634 10.9407 2.66634 8.00001C2.66634 5.05934 5.05901 2.66668 7.99967 2.66668C10.9403 2.66668 13.333 5.05934 13.333 8.00001C13.333 10.9407 10.9403 13.3333 7.99967 13.3333Z" fill="black"/>
<path d="M8.66634 4.66666H7.33301V8.27599L9.52834 10.4713L10.471 9.52866L8.66634 7.72399V4.66666Z" fill="black"/>
</svg>
