<svg width="67" height="55" viewBox="0 0 67 55" fill="none" xmlns="http://www.w3.org/2000/svg">
<path d="M34.5353 38.2979L42.7891 30.0442C42.9918 29.8374 43.1294 29.5757 43.1847 29.2915C43.2401 29.0073 43.2109 28.7131 43.1006 28.4454C42.9904 28.1777 42.804 27.9482 42.5646 27.7854C42.3251 27.6226 42.0432 27.5336 41.7537 27.5296H36.4583V3.83333C36.4583 2.20625 35.127 0.875 33.4999 0.875C31.8728 0.875 30.5416 2.20625 30.5416 3.83333V27.5H25.2462C23.9149 27.5 23.2641 29.0975 24.2108 30.0146L32.4645 38.2683C33.0266 38.86 33.9733 38.86 34.5353 38.2979ZM60.1249 0.875H45.3037C43.7062 0.875 42.3749 2.20625 42.3749 3.80375C42.3749 5.43083 43.7062 6.7325 45.3037 6.7325H57.1666C58.7937 6.7325 60.1249 8.06375 60.1249 9.69083V45.2796C60.1249 46.9067 58.7937 48.2379 57.1666 48.2379H9.83325C8.20617 48.2379 6.87492 46.9067 6.87492 45.2796V9.72042C6.87492 8.09333 8.20617 6.76208 9.83325 6.76208H21.6962C23.2937 6.76208 24.6249 5.43083 24.6249 3.83333C24.625 3.05383 24.3173 2.30582 23.7689 1.75187C23.2205 1.19791 22.4756 0.882795 21.6962 0.875H6.87492C3.62075 0.875 0.958252 3.5375 0.958252 6.79167V48.2083C0.958252 51.4625 3.62075 54.125 6.87492 54.125H60.1249C63.3791 54.125 66.0416 51.4625 66.0416 48.2083V6.79167C66.0416 3.5375 63.3791 0.875 60.1249 0.875Z" fill="white"/>
</svg>
